<svg data-v-fde0c5aa="" xmlns="http://www.w3.org/2000/svg" viewBox="0 0 300 300" class="iconLeftSlogan"><!----><defs data-v-fde0c5aa=""><!----></defs><rect data-v-fde0c5aa="" fill="transparent" x="0" y="0" width="300px" height="300px" class="logo-background-square"></rect><defs data-v-fde0c5aa=""><!----></defs><g data-v-fde0c5aa="" id="a5684b3b-6aa6-43a0-8980-acc4a5af90ef" fill="#000000" transform="matrix(2.274164015837671,0,0,2.274164015837671,113.29367556457927,118.49777831935386)"><path d="M1.34 13.30L6.23 13.37C7.25 13.37 7.56 13.29 7.56 12.39C7.56 12.28 7.56 12.15 7.55 12.00C7.20 12.18 6.58 12.28 5.67 12.31L3.11 12.38C3.08 11.02 3.08 10.02 3.08 8.22C3.08 7.14 3.15 5.85 3.15 4.23C3.15 3.68 2.53 3.36 1.90 3.36C1.68 3.36 1.50 3.42 1.27 3.49C1.27 3.49 1.34 3.61 1.41 4.97C1.46 5.87 1.50 8.26 1.50 9.42C1.50 12.91 1.34 13.30 1.34 13.30ZM8.85 11.28C8.85 12.43 9.21 13.51 11.03 13.51C12.74 13.51 13.27 12.31 13.27 12.31L13.34 12.32C13.34 12.32 13.33 12.40 13.33 12.45C13.33 13.17 13.92 13.44 14.46 13.44C15.67 13.44 16.02 12.57 16.02 12.57L15.96 12.53C15.96 12.53 15.71 12.73 15.43 12.73C14.77 12.73 14.73 11.83 14.73 11.27C14.73 9.69 14.84 8.39 14.84 7.07C14.84 6.50 14.29 6.16 13.64 6.16C13.41 6.16 13.19 6.22 12.95 6.29C12.95 6.29 13.09 6.59 13.19 7.55C13.23 8.04 13.26 8.81 13.26 9.72C13.26 10.92 12.88 12.63 11.56 12.63C10.47 12.63 10.39 11.62 10.39 10.49C10.39 9.09 10.43 8.23 10.43 7.06C10.43 6.50 9.87 6.16 9.24 6.16C9.02 6.16 8.79 6.23 8.55 6.29C8.72 6.52 8.79 7.06 8.83 7.63C8.88 8.30 8.88 9.03 8.88 9.37C8.88 10.08 8.85 10.70 8.85 11.28ZM16.66 11.63C16.66 12.66 17.35 13.51 18.52 13.51C19.40 13.51 20.10 13.02 20.43 12.43L20.48 12.46C20.50 13.20 21.10 13.44 21.67 13.44C22.88 13.44 23.23 12.57 23.23 12.57L23.17 12.53C23.17 12.53 22.92 12.73 22.64 12.73C21.95 12.73 21.94 11.72 21.94 11.17L21.94 11.00C21.94 10.23 21.98 9.30 21.98 8.55C21.98 7.28 21.71 6.09 19.73 6.09C18.49 6.09 17.36 6.96 17.14 7.80L17.19 7.85C17.71 7.39 18.44 7.01 19.12 7.01C20.20 7.01 20.47 7.67 20.47 8.85L20.47 8.97C18.94 9.00 16.66 9.60 16.66 11.63ZM18.24 11.37C18.24 9.88 19.89 9.63 20.47 9.53C20.47 10.25 20.43 10.99 20.43 11.55C20.43 12.08 19.66 12.52 19.18 12.52C18.69 12.52 18.24 12.21 18.24 11.37ZM24.18 13.30C24.51 13.37 24.88 13.44 25.17 13.44C25.66 13.44 26.05 13.24 26.05 12.49C26.05 11.16 26.00 10.21 26.00 8.95C26.00 7.63 26.92 6.94 27.68 6.94C28.88 6.94 28.91 7.87 28.91 8.83C28.91 10.26 28.87 11.10 28.87 12.31C28.87 13.15 29.51 13.44 30.13 13.44C31.33 13.44 31.68 12.57 31.68 12.57L31.63 12.53C31.63 12.53 31.37 12.73 31.09 12.73C30.41 12.73 30.39 11.89 30.39 11.26C30.39 10.05 30.45 9.13 30.45 8.11C30.45 7.08 30.25 6.09 28.41 6.09C27.40 6.09 26.28 6.57 25.96 7.29L25.90 7.28C25.90 7.28 25.96 7.11 25.96 6.93C25.96 6.50 25.51 6.16 24.86 6.16C24.64 6.16 24.42 6.22 24.18 6.29C24.18 6.29 24.39 6.41 24.46 7.77C24.49 8.44 24.51 9.17 24.51 9.87C24.51 12.38 24.28 13.26 24.18 13.30ZM32.55 8.74C32.55 11.17 34.06 13.51 37.38 13.51C39.17 13.51 40.71 12.43 40.98 11.17L40.94 11.13C39.97 11.94 38.84 12.28 37.74 12.28C35.42 12.28 34.27 10.19 34.27 8.06C34.27 5.38 35.71 4.07 37.27 4.07C38.30 4.07 39.40 4.63 40.11 5.74L40.19 5.74C40.46 5.46 40.75 4.93 40.75 4.62C40.75 3.79 38.89 3.29 37.62 3.29C34.43 3.29 32.55 6.01 32.55 8.74ZM42.77 12.36C42.77 13.23 43.13 13.44 43.65 13.44C43.95 13.44 44.28 13.36 44.63 13.30C44.60 13.29 44.31 12.78 44.31 10.02C44.31 8.47 44.62 7.34 45.71 7.34C46.03 7.34 46.38 7.50 46.83 7.73L46.90 7.70C47.01 7.41 47.07 7.01 47.07 6.71C47.07 6.40 46.93 6.16 46.38 6.16C45.63 6.16 44.66 6.71 44.27 7.59L44.21 7.57C44.21 7.57 44.31 7.27 44.31 7.06C44.31 6.48 43.82 6.16 43.18 6.16C42.95 6.16 42.73 6.22 42.49 6.29C42.55 6.34 42.84 7.08 42.84 9.93C42.84 10.70 42.77 11.52 42.77 12.36ZM47.70 11.63C47.70 12.66 48.38 13.51 49.56 13.51C50.44 13.51 51.14 13.02 51.46 12.43L51.52 12.46C51.53 13.20 52.14 13.44 52.71 13.44C53.91 13.44 54.26 12.57 54.26 12.57L54.21 12.53C54.21 12.53 53.96 12.73 53.68 12.73C52.99 12.73 52.98 11.72 52.98 11.17L52.98 11.00C52.98 10.23 53.02 9.30 53.02 8.55C53.02 7.28 52.75 6.09 50.76 6.09C49.53 6.09 48.40 6.96 48.17 7.80L48.23 7.85C48.75 7.39 49.48 7.01 50.16 7.01C51.24 7.01 51.51 7.67 51.51 8.85L51.51 8.97C49.98 9.00 47.70 9.60 47.70 11.63ZM49.28 11.37C49.28 9.88 50.93 9.63 51.51 9.53C51.51 10.25 51.46 10.99 51.46 11.55C51.46 12.08 50.69 12.52 50.22 12.52C49.73 12.52 49.28 12.21 49.28 11.37ZM57.20 13.72C57.20 11.70 57.16 10.25 57.16 8.82C57.16 8.32 57.18 7.78 57.22 7.24C57.34 7.24 58.04 7.25 58.16 7.25C58.66 7.25 58.94 7.13 58.94 6.54C58.94 6.47 58.94 6.24 58.93 6.16C58.93 6.16 58.74 6.30 58.17 6.30L57.16 6.30C57.16 6.30 57.20 5.82 57.20 5.64L57.20 5.26C57.20 3.72 58.23 3.32 58.98 3.32C59.67 3.32 60.41 3.54 60.72 4.05L60.79 4.00C60.79 3.07 59.88 2.38 58.48 2.38C56.81 2.38 55.66 3.33 55.66 5.46C55.66 6.17 55.30 6.30 54.71 6.30L54.71 6.89L55.08 7.03C55.62 7.24 55.72 7.60 55.72 10.04C55.72 15.44 55.31 16.00 54.45 16.34L54.45 16.41C54.59 16.49 54.75 16.53 54.94 16.53C56.13 16.53 57.20 15.50 57.20 13.72ZM60.23 10.79C60.23 12.36 60.70 13.51 62.34 13.51C64.05 13.51 64.51 11.90 64.51 11.90L64.44 11.84C64.44 11.84 63.64 12.50 62.96 12.50C61.88 12.50 61.75 11.33 61.75 9.94C61.75 8.88 61.80 7.22 61.80 7.22C61.80 7.22 62.78 7.25 62.93 7.25C63.43 7.25 63.71 7.13 63.71 6.54C63.71 6.47 63.71 6.24 63.70 6.16C63.70 6.16 63.52 6.30 62.94 6.30L61.80 6.30L62.08 4.77L61.75 4.66C61.57 5.12 60.24 6.30 59.64 6.30L59.64 6.89C60.19 7.06 60.28 7.11 60.28 8.30C60.28 8.83 60.23 9.88 60.23 10.79Z"></path></g><defs data-v-fde0c5aa=""><linearGradient data-v-fde0c5aa="" gradientTransform="rotate(25)" id="75d28e3e-7cde-474d-8346-e5b40930ba1d" x1="0%" y1="0%" x2="100%" y2="0%"><stop data-v-fde0c5aa="" offset="0%" stop-color="#49247E" stop-opacity="1"></stop><stop data-v-fde0c5aa="" offset="100%" stop-color="#AA49C7" stop-opacity="1"></stop></linearGradient></defs><g data-v-fde0c5aa="" id="80d4c71a-07f9-4013-a5f9-ce92d60f40d0" stroke="none" fill="url(#75d28e3e-7cde-474d-8346-e5b40930ba1d)" transform="matrix(1.9744332444161525,0,0,1.9744332444161525,40,118.40906808934156)"><path d="M9.382 8.675h13.943v13.943L32 31.293V0H.707zM22.618 23.325H8.675V9.382L0 .707V32h31.293z"></path></g><defs data-v-fde0c5aa=""><!----></defs><g data-v-fde0c5aa="" id="999ace4e-c655-446e-8353-0c2fb65f454c" fill="#000000" transform="matrix(0.9323704128277673,0,0,0.9323704128277673,115.89282899111733,160.76587596988142)"><path d="M1.15 6.34L0.31 6.15L0.36 5.89L3.05 5.89L3.03 6.11L1.90 6.32L3.86 13.18L5.90 6.18L6.21 6.14L8.15 13.18L10.36 6.36L9.08 6.13L9.12 5.89L11.74 5.89L11.72 6.14L10.91 6.34L8.22 14.49L7.77 14.57L5.94 7.63L3.92 14.49L3.44 14.57L1.15 6.34ZM20.66 6.36L19.43 6.18L19.48 5.89L25.68 5.89L25.46 8.07L25.15 8.03L25.02 6.24L21.37 6.24L21.37 9.89L23.66 9.89L23.91 8.94L24.28 8.89L24.06 11.55L23.71 11.61L23.60 10.26L21.37 10.26L21.37 14.03L25.21 14.03L25.72 12.19L26.00 12.26L25.79 14.40L19.46 14.40L19.50 14.11L20.66 13.90L20.66 6.36ZM35.60 6.15L35.60 9.75L37.72 9.75Q38.18 9.45 38.51 9.01Q38.85 8.57 38.85 8.02L38.85 8.02Q38.85 7.08 38.21 6.59Q37.57 6.11 36.44 6.11L36.44 6.11Q35.79 6.11 35.60 6.15L35.60 6.15ZM35.60 10.08L35.60 14.03L37.28 14.03Q37.92 14.03 38.38 13.85Q38.83 13.68 39.08 13.38Q39.32 13.08 39.43 12.74Q39.54 12.41 39.54 12.02L39.54 12.02Q39.54 11.68 39.43 11.36Q39.32 11.04 39.08 10.74Q38.84 10.45 38.40 10.26Q37.95 10.08 37.35 10.08L37.35 10.08L35.60 10.08ZM36.61 14.40L33.70 14.40L33.76 14.11L34.91 13.90L34.91 6.51L33.74 6.36L33.80 6.12Q33.93 6.10 34.36 6.03Q34.80 5.96 34.98 5.94Q35.15 5.91 35.51 5.87Q35.86 5.83 36.17 5.82Q36.48 5.80 36.83 5.80L36.83 5.80Q38.12 5.80 38.83 6.38Q39.55 6.96 39.55 7.79L39.55 7.79Q39.55 8.98 38.13 9.76L38.13 9.76L38.13 9.80Q39.12 9.86 39.69 10.46Q40.26 11.05 40.26 11.80L40.26 11.80Q40.26 12.22 40.16 12.58Q40.06 12.95 39.80 13.29Q39.53 13.63 39.13 13.87Q38.73 14.11 38.08 14.25Q37.43 14.40 36.61 14.40L36.61 14.40ZM49.87 6.19L49.87 14.03L51.10 14.03Q52.90 14.03 54.00 12.95Q55.10 11.87 55.10 10.12L55.10 10.12Q55.10 8.20 54.04 7.18Q52.99 6.16 51.06 6.16L51.06 6.16Q50.06 6.16 49.87 6.19L49.87 6.19ZM50.91 14.40L47.97 14.40L48.02 14.11L49.18 13.90L49.18 6.51L48.00 6.36L48.07 6.12Q50.16 5.79 51.31 5.79L51.31 5.79Q52.27 5.79 53.05 6.03Q53.83 6.26 54.34 6.66Q54.85 7.05 55.19 7.59Q55.54 8.13 55.69 8.71Q55.84 9.29 55.84 9.92L55.84 9.92Q55.84 10.64 55.67 11.28Q55.49 11.93 55.11 12.50Q54.73 13.08 54.16 13.49Q53.60 13.91 52.77 14.15Q51.94 14.40 50.91 14.40L50.91 14.40ZM64.78 6.36L63.55 6.18L63.60 5.89L69.79 5.89L69.58 8.07L69.27 8.03L69.14 6.24L65.49 6.24L65.49 9.89L67.78 9.89L68.03 8.94L68.40 8.89L68.17 11.55L67.83 11.61L67.72 10.26L65.49 10.26L65.49 14.03L69.33 14.03L69.84 12.19L70.12 12.26L69.91 14.40L63.57 14.40L63.62 14.11L64.78 13.90L64.78 6.36ZM77.83 13.60L77.83 13.60L78.04 11.66L78.37 11.71L78.56 13.21Q78.78 13.64 79.31 13.89Q79.84 14.14 80.45 14.14L80.45 14.14Q81.13 14.14 81.61 13.74Q82.09 13.33 82.09 12.61L82.09 12.61Q82.09 12.20 81.87 11.83Q81.66 11.46 81.31 11.18Q80.96 10.90 80.54 10.63Q80.12 10.36 79.71 10.07Q79.29 9.79 78.94 9.48Q78.60 9.17 78.38 8.75Q78.17 8.33 78.17 7.84L78.17 7.84Q78.17 6.88 78.86 6.29Q79.56 5.71 80.44 5.71L80.44 5.71Q81.03 5.71 81.57 5.90Q82.11 6.09 82.43 6.46L82.43 6.46L82.21 8.58L81.89 8.53L81.71 6.87Q81.53 6.54 81.11 6.32Q80.69 6.10 80.26 6.10L80.26 6.10Q79.67 6.10 79.25 6.48Q78.84 6.87 78.84 7.52L78.84 7.52Q78.84 7.96 79.06 8.35Q79.28 8.74 79.64 9.03Q79.99 9.32 80.41 9.61Q80.83 9.89 81.26 10.17Q81.69 10.45 82.04 10.75Q82.39 11.05 82.62 11.45Q82.84 11.85 82.84 12.29L82.84 12.29Q82.84 13.28 82.09 13.93Q81.33 14.57 80.09 14.57L80.09 14.57Q79.38 14.57 78.78 14.30Q78.18 14.03 77.83 13.60ZM91.72 6.33L90.54 6.16L90.58 5.89L93.70 5.89L93.65 6.16L92.46 6.32L92.46 13.95L93.78 14.08L93.71 14.40L90.60 14.40L90.64 14.11L91.72 13.90L91.72 6.33ZM101.51 10.27L101.51 10.27Q101.51 9.64 101.68 9.00Q101.86 8.36 102.20 7.78Q102.55 7.21 103.03 6.75Q103.51 6.30 104.18 6.04Q104.84 5.77 105.60 5.77L105.60 5.77Q106.34 5.77 107.04 5.94Q107.75 6.11 108.22 6.47L108.22 6.47L108.01 8.64L107.71 8.61L107.50 6.99Q107.23 6.65 106.68 6.41Q106.13 6.17 105.38 6.17L105.38 6.17Q103.97 6.17 103.13 7.27Q102.29 8.37 102.29 10.07L102.29 10.07Q102.29 10.69 102.40 11.25Q102.51 11.81 102.76 12.34Q103.02 12.87 103.40 13.25Q103.78 13.63 104.36 13.86Q104.95 14.09 105.68 14.09L105.68 14.09Q106.74 14.09 107.46 13.59L107.46 13.59L107.47 11.03L105.83 10.86L105.87 10.60L109.15 10.60L109.10 10.86L108.19 11.01L108.19 13.86Q107.54 14.25 106.80 14.39Q106.06 14.53 104.97 14.53L104.97 14.53Q104.27 14.53 103.64 14.23Q103.00 13.93 102.54 13.39Q102.07 12.85 101.79 12.04Q101.51 11.23 101.51 10.27ZM118.06 6.36L116.80 6.14L116.85 5.89L118.92 5.89L123.65 13.17L123.65 6.33L122.40 6.16L122.44 5.89L125.34 5.89L125.28 6.16L124.15 6.32L124.15 14.44L123.78 14.52L118.57 6.65L118.57 13.95L119.83 14.08L119.76 14.40L116.88 14.40L116.92 14.11L118.06 13.90L118.06 6.36ZM134.24 6.36L133.02 6.18L133.07 5.89L139.26 5.89L139.05 8.07L138.74 8.03L138.61 6.24L134.96 6.24L134.96 9.89L137.25 9.89L137.50 8.94L137.87 8.89L137.64 11.55L137.29 11.61L137.18 10.26L134.96 10.26L134.96 14.03L138.80 14.03L139.30 12.19L139.58 12.26L139.38 14.40L133.04 14.40L133.08 14.11L134.24 13.90L134.24 6.36ZM149.11 6.18L149.11 10.11L150.66 10.11Q151.35 9.86 151.81 9.28Q152.26 8.70 152.26 8.02L152.26 8.02Q152.26 7.11 151.65 6.63Q151.03 6.15 149.94 6.15L149.94 6.15L149.11 6.18ZM150.49 14.40L147.29 14.40L147.34 14.11L148.41 13.90L148.41 6.51L147.31 6.37L147.38 6.13Q149.20 5.83 150.28 5.83L150.28 5.83Q151.05 5.83 151.66 6.05Q152.26 6.27 152.64 6.73Q153.02 7.19 153.02 7.83L153.02 7.83Q153.02 8.57 152.59 9.14Q152.16 9.72 151.13 10.23L151.13 10.23L151.13 10.23L152.45 12.19Q153.16 13.23 153.50 13.58Q153.85 13.92 154.23 14.05L154.23 14.05L154.56 14.16L154.52 14.42Q154.23 14.52 153.88 14.52L153.88 14.52Q153.60 14.52 153.34 14.40Q153.09 14.28 152.85 14.01Q152.61 13.75 152.42 13.48Q152.24 13.22 151.96 12.77L151.96 12.77L150.58 10.49L149.11 10.49L149.11 13.95L150.55 14.08L150.49 14.40Z"></path></g></svg>