<svg width="424" height="75" viewBox="0 0 424 75" fill="none" xmlns="http://www.w3.org/2000/svg">
<path d="M21.6959 20.0609H53.9391V52.3041L74 72.3651V0H1.63494L21.6959 20.0609ZM52.3041 53.9391H20.0609V21.6959L0 1.63494V74H72.3651L52.3041 53.9391Z" fill="url(#paint0_linear_138_9)"/>
<path d="M118.648 56.1992H117.67H117.598H114.935V56.6883C114.935 56.96 115.08 57.1049 115.406 57.1411H115.641C115.732 57.1411 115.913 57.1592 116.167 57.1592C116.42 57.1592 116.674 57.1955 116.982 57.1955L112.671 71.2694C112.617 71.4324 112.562 71.6135 112.544 71.8128C112.526 72.0302 112.472 72.1932 112.417 72.4105C112.363 72.1932 112.345 71.9758 112.291 71.7947L112.146 71.2694L107.074 56.5253C107.02 56.4347 106.965 56.326 106.893 56.2717C106.82 56.2174 106.712 56.1992 106.585 56.1992H106.223C106.096 56.1992 106.005 56.2174 105.933 56.3079C105.842 56.3804 105.77 56.4347 105.752 56.5253L100.68 71.2875C100.626 71.4686 100.571 71.6135 100.517 71.8128C100.481 71.9939 100.445 72.1932 100.39 72.4286C100.372 72.2475 100.318 72.0483 100.263 71.8128C100.245 71.6135 100.191 71.4324 100.137 71.2694L95.8257 57.1955C96.1336 57.1955 96.3872 57.1592 96.6226 57.1592C96.84 57.1592 97.003 57.1411 97.0936 57.1411H97.3109C97.637 57.1049 97.8181 56.96 97.8181 56.6883V56.1992H95.1555H94.0868H93V56.6883C93 56.96 93.163 57.1049 93.5072 57.1411H93.6702C93.7608 57.1411 93.8332 57.1592 93.96 57.1592C94.0868 57.1592 94.2317 57.1955 94.3947 57.1955L99.7381 74.1313H100.879L106.204 58.554C106.277 58.3547 106.331 58.1555 106.386 57.92C106.44 58.1555 106.476 58.3547 106.567 58.554L111.856 74.1313H113.033L118.358 57.1955C118.503 57.1955 118.63 57.1592 118.757 57.1592C118.884 57.1592 118.992 57.1411 119.065 57.1411H119.246C119.572 57.1049 119.717 56.96 119.717 56.6883V56.1992H118.648ZM136.453 56.1992H134.298V56.6883C134.298 56.96 134.479 57.1049 134.805 57.1411H135.059C135.186 57.1411 135.367 57.1592 135.62 57.1592C135.874 57.1592 136.146 57.1955 136.453 57.1955V73.1169C136.146 73.1169 135.874 73.1351 135.62 73.1351C135.367 73.1351 135.186 73.1713 135.059 73.1713H134.805C134.479 73.1894 134.334 73.3343 134.334 73.6241V74.1313H136.453H147.213V73.0445V70.4H146.579C146.216 70.4 146.072 70.6354 146.035 71.0339C146.035 71.0883 146.017 71.1788 146.017 71.36C146.017 71.5411 146.017 71.7947 145.999 72.1751C145.963 72.5554 145.945 72.809 145.945 73.0445H137.758V65.5638H144.894V64.5132H137.758V57.2679H145.945C145.999 58.3728 146.035 59.0611 146.035 59.2966C146.072 59.6951 146.216 59.8943 146.579 59.8943H147.213V57.2679V56.1992H136.453ZM175.632 66.3426C174.872 65.6 173.785 65.1472 172.372 64.9479C172.952 64.803 173.459 64.5856 173.912 64.3139C174.364 64.0422 174.781 63.7343 175.071 63.3539C175.379 62.9736 175.632 62.557 175.795 62.1404C175.94 61.7056 176.049 61.2528 176.049 60.7638C176.049 60.0573 175.886 59.3872 175.668 58.8438C175.433 58.2823 175.053 57.7932 174.564 57.3947C174.093 57.0143 173.477 56.7064 172.716 56.5072C171.955 56.3079 171.068 56.1992 170.053 56.1992H164.909H162.754V56.6883C162.754 56.96 162.935 57.1049 163.261 57.1411H163.515C163.641 57.1411 163.822 57.1592 164.076 57.1592C164.33 57.1592 164.601 57.1955 164.909 57.1955V73.1169C164.601 73.1169 164.33 73.1351 164.076 73.1351C163.822 73.1351 163.641 73.1713 163.515 73.1713H163.261C162.935 73.1894 162.772 73.3343 162.772 73.6241V74.1313H164.909H170.724C171.684 74.1313 172.517 74.0226 173.278 73.8052C174.038 73.5698 174.672 73.2619 175.179 72.8271C175.687 72.4105 176.085 71.9034 176.375 71.2875C176.647 70.6717 176.773 70.0015 176.773 69.2407C176.773 68.0453 176.393 67.0853 175.632 66.3426ZM166.195 57.2136H170.053C171.647 57.2136 172.843 57.5396 173.604 58.1555C174.364 58.7894 174.745 59.677 174.745 60.8906C174.745 61.3434 174.672 61.8324 174.491 62.2672C174.31 62.6838 174.038 63.0641 173.658 63.4264C173.278 63.7887 172.788 64.0604 172.209 64.2596C171.629 64.4588 170.923 64.5856 170.09 64.5856H166.195V57.2136ZM174.274 72.0664C173.459 72.7547 172.263 73.0807 170.687 73.0807H166.195V65.5275H170.724C171.484 65.5275 172.136 65.6 172.716 65.7811C173.296 65.9622 173.803 66.2158 174.219 66.5238C174.618 66.8498 174.926 67.2121 175.161 67.6649C175.361 68.1177 175.487 68.643 175.487 69.2045C175.487 70.4543 175.071 71.3962 174.274 72.0664ZM226.711 61.4158C226.295 60.3109 225.715 59.3872 224.954 58.6083C224.194 57.8294 223.306 57.2136 222.274 56.8151C221.223 56.3985 220.046 56.1992 218.778 56.1992H212.565H210.41V56.6883C210.41 56.96 210.573 57.1049 210.917 57.1411H211.17C211.297 57.1411 211.46 57.1592 211.714 57.1592C211.967 57.1592 212.257 57.1955 212.565 57.1955V73.1169C212.257 73.1169 211.967 73.1351 211.714 73.1351C211.46 73.1351 211.297 73.1713 211.17 73.1713H210.917C210.573 73.1894 210.41 73.3343 210.41 73.6241V74.1313H212.565H218.778C220.046 74.1313 221.223 73.932 222.274 73.5154C223.306 73.1169 224.194 72.5011 224.954 71.7222C225.715 70.9253 226.295 70.0015 226.711 68.8785C227.11 67.7554 227.345 66.5419 227.345 65.1471C227.345 63.7887 227.11 62.5389 226.711 61.4158ZM225.462 68.5162C225.117 69.5124 224.646 70.3275 224.013 71.0158C223.379 71.686 222.618 72.1932 221.73 72.5554C220.843 72.9177 219.865 73.0807 218.778 73.0807H213.851V57.2317H218.778C219.865 57.2317 220.843 57.4128 221.73 57.7751C222.618 58.1192 223.379 58.6264 224.013 59.3147C224.646 60.003 225.117 60.8181 225.462 61.7962C225.824 62.7924 226.005 63.9155 226.005 65.1471C226.005 66.4151 225.824 67.5381 225.462 68.5162ZM244.517 56.1992H242.361V56.6883C242.361 56.96 242.524 57.1049 242.868 57.1411H243.122C243.249 57.1411 243.412 57.1592 243.665 57.1592C243.919 57.1592 244.209 57.1955 244.517 57.1955V73.1169C244.209 73.1169 243.919 73.1351 243.665 73.1351C243.412 73.1351 243.249 73.1713 243.122 73.1713H242.868C242.524 73.1894 242.379 73.3343 242.379 73.6241V74.1313H244.517H255.258V73.0445V70.4H254.624C254.28 70.4 254.117 70.6354 254.099 71.0339C254.099 71.0883 254.062 71.1788 254.062 71.36C254.062 71.5411 254.062 71.7947 254.044 72.1751C254.026 72.5554 253.99 72.809 253.99 73.0445H245.803V65.5638H252.957V64.5132H245.803V57.2679H253.99C254.044 58.3728 254.099 59.0611 254.099 59.2966C254.117 59.6951 254.28 59.8943 254.624 59.8943H255.258V57.2679V56.1992H244.517ZM281.178 67.049C280.924 66.5781 280.562 66.1071 280.145 65.7811C279.711 65.4551 279.258 65.1834 278.714 64.9479C278.189 64.7124 277.609 64.5132 277.048 64.3321C276.486 64.169 275.925 63.9517 275.4 63.7887C274.856 63.5713 274.385 63.3539 273.951 63.0641C273.516 62.7924 273.19 62.4664 272.936 62.0498C272.683 61.6513 272.538 61.1441 272.538 60.5283C272.538 60.0755 272.628 59.6407 272.809 59.2241C272.991 58.7894 273.244 58.4272 273.57 58.1011C273.896 57.7751 274.313 57.5215 274.82 57.3404C275.327 57.1592 275.871 57.0687 276.541 57.0687C277.754 57.0687 278.877 57.2679 279.892 57.7026C279.964 59.1336 280.018 59.9487 280.018 60.0755C280.037 60.4921 280.181 60.7094 280.544 60.7094H281.16V57.0325C279.548 56.3442 278.026 56 276.541 56C275.708 56 274.965 56.1268 274.313 56.3804C273.643 56.634 273.117 56.96 272.683 57.3947C272.248 57.8294 271.904 58.3004 271.668 58.8619C271.433 59.4234 271.342 60.003 271.342 60.6189C271.342 61.3796 271.469 62.0317 271.723 62.5389C271.976 63.046 272.32 63.4445 272.755 63.8068C273.19 64.169 273.643 64.4226 274.186 64.64C274.711 64.8755 275.291 65.0747 275.852 65.2558C276.414 65.437 276.939 65.6 277.501 65.7811C278.026 65.9622 278.515 66.2158 278.95 66.4875C279.384 66.7773 279.711 67.1034 279.964 67.5019C280.218 67.9185 280.344 68.4437 280.344 69.0777C280.344 69.6573 280.236 70.2188 280.037 70.726C279.837 71.2332 279.548 71.6679 279.167 72.0483C278.787 72.4286 278.316 72.7366 277.754 72.9358C277.193 73.1713 276.559 73.2437 275.852 73.2437C274.44 73.2437 273.244 73.0083 272.284 72.5554C272.248 72.1932 272.248 71.8128 272.23 71.4143C272.194 71.0158 272.194 70.6717 272.175 70.4C272.157 70.1283 272.157 69.9653 272.157 69.9471C272.121 69.5305 271.94 69.3313 271.596 69.3313H270.98V72.6822V73.0083V73.3343C272.538 74.0045 274.132 74.3305 275.798 74.3305C276.722 74.3305 277.519 74.1856 278.243 73.8958C278.95 73.6241 279.548 73.2075 280.037 72.7366C280.526 72.2475 280.924 71.6679 281.178 71.0158C281.431 70.3456 281.558 69.6392 281.558 68.8785C281.558 68.1358 281.431 67.5381 281.178 67.049ZM301.609 57.1411C301.953 57.1049 302.098 56.96 302.098 56.6883V56.1811H299.961H298.675H296.52V56.6883C296.52 56.96 296.701 57.1049 297.027 57.1411H297.28C297.407 57.1411 297.588 57.1592 297.842 57.1592C298.095 57.1592 298.367 57.1955 298.675 57.1955V73.1169C298.367 73.1169 298.095 73.1351 297.842 73.1351C297.588 73.1351 297.407 73.1713 297.28 73.1713H297.027C296.701 73.1894 296.52 73.3343 296.52 73.6241V74.1313H298.675H299.961H302.098V73.6241C302.098 73.3343 301.953 73.1894 301.609 73.1713H301.356C301.229 73.1713 301.066 73.1351 300.812 73.1351C300.559 73.1351 300.269 73.1169 299.961 73.1169V57.1955C300.269 57.1955 300.559 57.1592 300.812 57.1592C301.066 57.1592 301.229 57.1411 301.356 57.1411H301.609ZM327.439 65.9804V66.7049C327.439 66.7773 327.475 66.8498 327.529 66.9041C327.584 66.9585 327.656 66.9766 327.765 66.9766H331.206V71.8128C330.808 72.0483 330.391 72.2475 330.011 72.4286C329.63 72.6098 329.214 72.7909 328.779 72.9177C328.344 73.0445 327.855 73.1351 327.348 73.1894C326.841 73.2437 326.298 73.2619 325.682 73.2619C324.559 73.2619 323.544 73.0807 322.639 72.7003C321.733 72.32 320.936 71.7947 320.284 71.1064C319.614 70.4181 319.107 69.5668 318.763 68.5524C318.4 67.5381 318.201 66.4151 318.201 65.1471C318.201 63.9155 318.4 62.7924 318.763 61.7962C319.107 60.8181 319.614 59.9487 320.284 59.2604C320.936 58.5902 321.751 58.0468 322.693 57.6664C323.635 57.286 324.667 57.1049 325.827 57.1049C327.964 57.1049 329.667 57.3947 330.898 57.9743C330.989 59.6226 331.025 60.5283 331.025 60.7094C331.061 61.126 331.242 61.3253 331.587 61.3253H332.202V57.2679C331.405 56.9057 330.391 56.5977 329.123 56.3442C327.855 56.0906 326.805 56 325.881 56C324.523 56 323.273 56.1992 322.15 56.634C321.045 57.0687 320.103 57.7026 319.324 58.4815C318.527 59.2604 317.947 60.2385 317.513 61.3796C317.078 62.4845 316.879 63.7524 316.879 65.1471C316.879 66.5419 317.078 67.7917 317.513 68.9328C317.947 70.0739 318.527 71.0158 319.288 71.8128C320.049 72.6279 320.99 73.2437 322.059 73.6785C323.128 74.0951 324.287 74.3305 325.573 74.3305C326.334 74.3305 327.022 74.2762 327.656 74.2037C328.29 74.0951 328.87 73.9683 329.431 73.8234C329.993 73.6422 330.5 73.443 330.989 73.1894C331.46 72.9358 331.913 72.6641 332.384 72.3562V65.9804H327.439ZM363.593 56.1992H362.451H360.242V56.6883C360.242 56.96 360.423 57.1049 360.749 57.1411H361.002C361.129 57.1411 361.328 57.1592 361.582 57.1592C361.836 57.1592 362.144 57.1955 362.451 57.1955V71.2332C362.451 71.4686 362.451 71.7222 362.47 71.9758L350.859 56.4347C350.787 56.326 350.732 56.2536 350.66 56.2174C350.587 56.1992 350.515 56.1811 350.388 56.1811H349.754H347.599V56.6883C347.599 56.96 347.762 57.1049 348.106 57.1411H348.359C348.486 57.1411 348.649 57.1592 348.903 57.1592C349.156 57.1592 349.446 57.1955 349.754 57.1955V73.1169C349.446 73.1169 349.156 73.1351 348.903 73.1351C348.649 73.1351 348.486 73.1713 348.359 73.1713H348.106C347.762 73.1894 347.599 73.3343 347.599 73.6241V74.1313H349.754H350.859H353.069V73.6241C353.069 73.3343 352.888 73.1894 352.562 73.1713H352.308C352.181 73.1713 351.946 73.1351 351.692 73.1351C351.439 73.1351 351.167 73.1169 350.859 73.1169V59.043C350.859 58.8075 350.859 58.554 350.841 58.3004L362.506 73.8777C362.633 74.0588 362.759 74.1313 362.959 74.1313H363.593V57.1955C363.901 57.1955 364.154 57.1592 364.408 57.1592C364.661 57.1592 364.861 57.1411 364.987 57.1411H365.223C365.549 57.1049 365.73 56.96 365.73 56.6883V56.1992H363.593ZM382.43 56.1992H380.275V56.6883C380.275 56.96 380.456 57.1049 380.782 57.1411H381.036C381.162 57.1411 381.344 57.1592 381.597 57.1592C381.851 57.1592 382.122 57.1955 382.43 57.1955V73.1169C382.122 73.1169 381.851 73.1351 381.597 73.1351C381.344 73.1351 381.162 73.1713 381.036 73.1713H380.782C380.456 73.1894 380.311 73.3343 380.311 73.6241V74.1313H382.43H393.19V73.0445V70.4H392.556C392.193 70.4 392.048 70.6354 392.012 71.0339C392.012 71.0883 391.994 71.1788 391.994 71.36C391.994 71.5411 391.994 71.7947 391.976 72.1751C391.94 72.5554 391.922 72.809 391.922 73.0445H383.734V65.5638H390.871V64.5132H383.734V57.2679H391.922C391.976 58.3728 392.012 59.0611 392.012 59.2966C392.048 59.6951 392.193 59.8943 392.556 59.8943H393.19V57.2679V56.1992H382.43ZM423.203 73.1713H423.04H422.696C422.551 73.1713 422.406 73.1351 422.243 73.1351L416.863 66.3607C416.719 66.1615 416.519 65.9804 416.32 65.8536C417.099 65.7811 417.805 65.6 418.439 65.3283C419.073 65.0566 419.58 64.6943 420.033 64.2596C420.468 63.8249 420.83 63.3177 421.048 62.7743C421.283 62.2128 421.41 61.5789 421.41 60.8906C421.41 59.3509 420.903 58.2098 419.888 57.3947C418.874 56.5977 417.334 56.1992 415.251 56.1992H410.886H408.749V56.6883C408.749 56.96 408.912 57.1049 409.238 57.1411H409.491C409.618 57.1411 409.799 57.1592 410.053 57.1592C410.306 57.1592 410.578 57.1955 410.886 57.1955V73.1169C410.578 73.1169 410.306 73.1351 410.053 73.1351C409.799 73.1351 409.618 73.1713 409.491 73.1713H409.238C408.912 73.1894 408.731 73.3343 408.731 73.6241V74.1313H410.886H412.172H414.309V73.6241C414.309 73.3343 414.128 73.1894 413.802 73.1713H413.549C413.422 73.1713 413.241 73.1351 412.987 73.1351C412.734 73.1351 412.48 73.1169 412.172 73.1169V66.0166H414.309C414.672 66.0166 414.925 66.0347 415.07 66.1071C415.215 66.1977 415.378 66.3426 415.523 66.5238L421.283 73.8052C421.392 73.932 421.464 74.0045 421.555 74.0588C421.663 74.0951 421.79 74.1313 421.917 74.1313H422.044H423.04H423.692V73.6241C423.692 73.3343 423.547 73.1894 423.203 73.1713ZM415.07 65.0566H412.172V57.2136H415.251C416.845 57.2136 418.059 57.5396 418.892 58.1555C419.743 58.7532 420.142 59.7313 420.142 60.9992C420.142 61.6332 420.033 62.1585 419.816 62.6656C419.58 63.1728 419.236 63.5713 418.802 63.9336C418.367 64.2958 417.842 64.5856 417.208 64.7668C416.574 64.9479 415.849 65.0566 415.07 65.0566Z" fill="#281932"/>
<path d="M111.624 46.3545L107.963 46.263C107.475 46.263 106.972 46.263 106.453 46.263L94.7846 46.8579C94.144 46.8579 93.8237 46.6444 93.8237 46.2173C93.8237 46.0952 93.8847 45.7902 94.0067 45.3021C94.4338 44.3259 94.7541 41.2142 94.9677 35.9671C95.1507 30.72 95.2422 25.9305 95.2422 21.5986C95.2422 17.2361 95.1507 13.7126 94.9677 11.0281C94.7236 6.97072 94.2965 4.54546 93.6864 3.75229C93.2288 3.14216 93 2.74558 93 2.56254C93 1.8914 94.144 1.29652 96.432 0.777915C98.7505 0.259305 100.413 0 101.42 0C102.426 0 103.052 0.0610127 103.296 0.183039C103.57 0.274558 103.708 0.503357 103.708 0.869434C103.708 1.205 103.616 2.28798 103.433 4.11837C103.006 9.54852 102.793 15.8634 102.793 23.0629C102.793 30.2624 102.96 36.0129 103.296 40.3143C103.296 40.7719 103.708 41.1837 104.531 41.5498C105.325 41.8853 106.331 42.0531 107.552 42.0531C111.731 42.0531 113.821 38.8195 113.821 32.3521C113.821 30.5827 113.729 29.4845 113.546 29.0574C113.333 28.6303 113.226 28.3405 113.226 28.188C113.226 27.7609 113.531 27.5473 114.141 27.5473C114.599 27.5473 115.224 27.7914 116.017 28.2795C116.81 28.7371 117.466 29.3167 117.985 30.0183C118.503 30.72 118.976 31.8335 119.403 33.3588C119.83 34.8841 120.044 36.6687 120.044 38.7127C120.044 43.8073 119.419 46.3545 118.168 46.3545C116.002 46.3545 113.821 46.3545 111.624 46.3545ZM145.075 17.892C144.312 22.4985 143.931 28.371 143.931 35.5095C143.931 40.7566 144.144 44.2191 144.571 45.8969L144.8 46.7206C144.8 47.2697 144.342 47.5443 143.427 47.5443C140.132 47.5443 138.241 46.6291 137.753 44.7987C137.722 44.5852 137.631 44.4784 137.478 44.4784C137.326 44.4784 137.189 44.5699 137.067 44.753C135.755 46.4918 133.711 47.3613 130.935 47.3613C129.379 47.3613 127.777 46.9799 126.13 46.2173C125.093 45.7292 124.254 44.9055 123.613 43.7462C122.973 42.5565 122.652 41.1074 122.652 39.3991L123.613 25.3966C123.613 22.4375 123.308 20.3478 122.698 19.1275C122.484 18.6394 122.378 18.3344 122.378 18.2123C122.378 17.9683 122.484 17.8005 122.698 17.709C123.4 17.4954 124.284 17.3887 125.352 17.3887C129.501 17.3887 131.575 19.097 131.575 22.5138C131.575 23.5815 131.133 26.0067 130.248 29.7895C129.364 33.6029 128.921 36.3027 128.921 37.889C128.921 39.5059 129.272 40.7414 129.974 41.5955C130.675 42.4497 131.667 42.8768 132.948 42.8768C134.199 42.8768 135.19 42.4345 135.923 41.5498C136.655 40.6346 137.082 39.7346 137.204 38.85L137.387 37.4772C137.57 35.9824 137.661 33.3588 137.661 29.6065C137.661 25.8542 137.539 23.4747 137.295 22.468C137.051 21.4613 136.929 20.8359 136.929 20.5919C136.929 19.5241 137.783 18.6699 139.492 18.0293C141.2 17.4192 142.741 17.1141 144.114 17.1141C144.754 17.1141 145.075 17.3734 145.075 17.892ZM169.556 27.1812L169.419 35.3722C169.419 41.0464 170.044 44.4631 171.295 45.6224C171.447 45.8054 171.524 46.0037 171.524 46.2173C171.524 46.8579 170.151 47.1782 167.405 47.1782C164.66 47.1782 163.195 46.3698 163.012 44.753C162.982 44.3564 162.967 43.5632 162.967 42.3735L163.195 32.1233C163.195 31.8182 163.028 31.6657 162.692 31.6657C160.648 31.6657 158.726 32.2453 156.926 33.4046C155.126 34.5638 154.226 36.0281 154.226 37.7975C154.226 38.7432 154.486 39.5364 155.004 40.177C155.523 40.8176 156.148 41.1379 156.881 41.1379C157.643 41.1379 158.269 40.9854 158.757 40.6803C159.245 40.4058 159.535 40.238 159.626 40.177C160.358 40.2685 160.724 41.0312 160.724 42.465C160.724 43.8988 160.053 45.0428 158.711 45.8969C157.399 46.7816 156.011 47.224 154.547 47.224C153.113 47.224 151.862 46.9647 150.794 46.4461C149.757 45.958 149.01 45.3936 148.552 44.753C148.064 44.1123 147.668 43.3802 147.362 42.5565C147.088 41.5803 146.951 40.7261 146.951 39.994C146.951 37.0043 147.881 34.6096 149.742 32.8097C151.633 31.0098 154.043 29.7285 156.972 28.9659C160.877 28.2032 162.906 27.5016 163.058 26.8609C163.211 26.4033 163.287 25.6102 163.287 24.4814C163.287 22.2239 162.128 21.0952 159.809 21.0952C158.833 21.0952 157.963 21.4003 157.201 22.0104C156.408 22.651 156.011 23.4289 156.011 24.3441L156.423 25.9C156.331 26.6321 155.553 27.0592 154.089 27.1812L153.403 27.227C152.121 27.227 151.115 26.9067 150.383 26.2661C149.62 25.6254 149.239 24.7712 149.239 23.7035C149.239 23.0324 149.467 22.285 149.925 21.4613C150.352 20.6071 150.916 19.936 151.618 19.4479C152.289 18.9292 153.342 18.4564 154.776 18.0293C156.209 17.6327 157.582 17.4344 158.894 17.4344C160.236 17.4344 161.273 17.4802 162.006 17.5717C162.707 17.6632 163.699 17.8615 164.98 18.1666C166.231 18.5022 167.268 19.1123 168.092 19.997C168.946 20.9122 169.403 21.8579 169.464 22.8341C169.525 23.8408 169.556 25.2898 169.556 27.1812ZM173.446 46.8579C174.208 42.2514 174.59 36.7145 174.59 30.2471C174.59 23.8103 174.406 19.6309 174.04 17.709C174.04 17.1599 174.681 16.8853 175.962 16.8853C177.915 16.8853 179.211 17.6327 179.852 19.1275C179.913 19.2496 180.02 19.3106 180.172 19.3106C180.355 19.3106 180.492 19.2648 180.584 19.1733C181.896 17.8005 183.94 17.1141 186.716 17.1141C189.492 17.1141 191.688 17.8158 193.305 19.2191C194.922 20.6529 195.73 22.712 195.73 25.3966C195.73 27.0135 195.593 29.3167 195.319 32.3063C195.044 35.296 194.907 37.5229 194.907 38.9872C194.907 42.4345 195.486 44.9207 196.646 46.4461C196.829 46.6596 196.92 46.8732 196.92 47.0867C196.92 47.6663 196.31 47.9561 195.09 47.9561C189.812 47.9561 187.173 45.6071 187.173 40.9091C187.173 39.1093 187.57 36.6077 188.363 33.4046C189.187 30.2014 189.599 27.7609 189.599 26.083C189.599 22.6663 188.195 20.9579 185.389 20.9579C184.016 20.9579 182.979 21.3698 182.277 22.1934C181.575 22.9866 181.179 23.9171 181.087 24.9848C180.996 26.022 180.95 27.9897 180.95 30.8878C180.95 35.3417 181.103 39.216 181.408 42.5107L181.545 43.8835C181.545 45.1038 180.767 46.0342 179.211 46.6749C177.625 47.346 176.267 47.6816 175.139 47.6816C174.01 47.6816 173.446 47.407 173.446 46.8579ZM213.256 34.8689L213.622 23.5205H209.321C208.986 23.5205 208.818 23.3984 208.818 23.1544C208.818 22.3917 209.184 21.507 209.916 20.5003C210.648 19.4936 211.441 18.9903 212.295 18.9903H213.622C213.531 15.6651 213.439 13.2703 213.348 11.806C213.195 9.21295 212.768 7.19952 212.067 5.76572L211.746 5.12508C211.594 4.91154 211.518 4.66749 211.518 4.39293C211.518 4.08786 211.746 3.82856 212.204 3.61501C212.692 3.40147 213.394 3.14216 214.309 2.8371C215.224 2.53204 217.177 2.13545 220.166 1.64735C223.156 1.15925 226.405 0.915194 229.913 0.915194C233.452 0.915194 235.374 1.1745 235.679 1.69311C236.014 2.21172 236.182 3.00489 236.182 4.07261C236.182 5.17084 236.029 5.71996 235.724 5.71996C235.694 5.71996 235.541 5.70471 235.267 5.6742C234.596 5.49116 233.558 5.39964 232.155 5.39964C230.721 5.39964 229.196 5.52167 227.579 5.76572C225.962 6.04028 224.727 6.29958 223.873 6.54363L222.637 7.00123C222.302 7.09275 222.058 7.39781 221.905 7.91642C221.539 10.418 221.356 14.1092 221.356 18.9903H231.743C232.14 18.9903 232.338 19.1123 232.338 19.3563C232.338 20.119 231.987 21.0189 231.286 22.0562C230.615 23.0934 229.852 23.612 228.998 23.612L221.356 23.5205L221.813 42.7395C221.813 43.6852 221.661 44.3716 221.356 44.7987C220.563 45.8664 219.19 46.6749 217.238 47.224C215.285 47.7426 213.668 48.0019 212.387 48.0019C212.051 48.0019 211.884 47.7883 211.884 47.3613C211.884 47.1477 211.914 46.9799 211.975 46.8579C212.463 46.1257 212.89 42.1294 213.256 34.8689ZM238.241 30.1099L238.287 31.7115C238.287 31.986 238.455 32.1233 238.79 32.1233C240.163 32.0013 241.368 31.6504 242.405 31.0708C243.412 30.4912 244.175 29.8353 244.693 29.1032C245.731 27.5168 246.28 26.144 246.341 24.9848L246.432 24.2526C246.432 21.9341 245.517 20.7749 243.687 20.7749C242.314 20.7749 241.2 21.3698 240.346 22.5595C238.943 24.4509 238.241 26.9677 238.241 30.1099ZM252.198 38.6669C252.198 40.2838 251.862 41.7023 251.191 42.9226C250.52 44.1428 249.773 45.0275 248.949 45.5766C248.125 46.1563 247.149 46.6291 246.02 46.9952C244.617 47.4223 243.275 47.6358 241.993 47.6358C238.424 47.6358 235.785 46.2783 234.077 43.5632C232.369 40.8786 231.515 37.4619 231.515 33.313C231.515 29.1337 232.567 25.4271 234.672 22.1934C236.777 18.9293 239.95 17.2972 244.19 17.2972C248.034 17.2972 250.642 18.6547 252.015 21.3698C252.564 22.3765 252.839 23.3374 252.839 24.2526C252.839 25.1678 252.793 25.9 252.701 26.4491C252.61 26.9677 252.305 27.7609 251.786 28.8286C251.298 29.8963 250.627 30.8573 249.773 31.7115C248.918 32.5656 247.561 33.3893 245.7 34.1825C243.87 34.9451 241.719 35.4485 239.248 35.6925C238.912 35.6925 238.745 35.8451 238.745 36.1501C238.745 36.5467 238.882 37.1111 239.156 37.8432C239.431 38.6059 239.736 39.2313 240.072 39.7194C241.017 40.9397 242.405 41.5498 244.236 41.5498C246.066 41.5498 247.622 40.9397 248.903 39.7194C249.605 39.0788 250.169 38.3008 250.596 37.3857C250.749 37.0196 250.978 36.8365 251.283 36.8365C251.557 36.8365 251.771 37.0806 251.923 37.5687C252.106 38.0263 252.198 38.3924 252.198 38.6669ZM274.94 24.3441L274.62 29.2404L274.849 31.4827C274.849 32.2758 274.086 32.6724 272.561 32.6724C269.449 32.6724 267.893 31.4979 267.893 29.1489C267.893 28.5998 268.046 27.8371 268.351 26.8609C268.626 25.8847 268.763 25.0305 268.763 24.2984C268.763 23.5662 268.549 22.9408 268.122 22.4222C267.695 21.8731 267.085 21.5986 266.292 21.5986C265.468 21.5986 264.767 21.8884 264.187 22.468C263.607 23.0476 263.256 23.6425 263.134 24.2526L262.906 25.1221C262.631 26.4643 262.494 28.6761 262.494 31.7572C262.494 34.8689 262.54 37.3094 262.631 39.0788C262.723 40.8481 262.814 42.0684 262.906 42.7395C262.967 43.3802 262.997 43.7615 262.997 43.8835C262.997 44.9512 262.341 45.8207 261.03 46.4918C259.718 47.163 258.391 47.4985 257.048 47.4985C255.737 47.4985 255.081 47.224 255.081 46.6749L255.401 44.6614C255.981 40.9397 256.27 36.0891 256.27 30.1099C256.27 24.1306 256.057 20.0732 255.63 17.9378C255.63 17.4497 256.087 17.2056 257.003 17.2056C259.291 17.2056 260.831 17.9836 261.624 19.5394C261.655 19.7224 261.716 19.8139 261.807 19.8139C261.929 19.8139 262.219 19.6156 262.677 19.2191C264.111 18.0903 265.789 17.526 267.71 17.526C268.9 17.526 270.09 17.7548 271.28 18.2123C273.72 19.1886 274.94 21.2325 274.94 24.3441ZM277.823 46.8579C278.586 42.2514 278.967 36.7145 278.967 30.2471C278.967 23.8103 278.769 19.6309 278.372 17.709C278.372 17.1599 279.013 16.8853 280.294 16.8853C282.277 16.8853 283.589 17.6327 284.23 19.1275C284.26 19.2496 284.367 19.3106 284.55 19.3106C284.703 19.3106 284.825 19.2648 284.916 19.1733C286.258 17.8005 288.318 17.1141 291.094 17.1141C293.87 17.1141 296.066 17.8158 297.683 19.2191C299.3 20.6529 300.108 22.712 300.108 25.3966C300.108 27.0135 299.971 29.3167 299.696 32.3063C299.422 35.296 299.285 37.5229 299.285 38.9872C299.285 42.4345 299.864 44.9207 301.023 46.4461C301.176 46.6596 301.252 46.8732 301.252 47.0867C301.252 47.6663 300.657 47.9561 299.468 47.9561C294.16 47.9561 291.505 45.6071 291.505 40.9091C291.505 39.1093 291.917 36.6077 292.741 33.4046C293.565 30.2014 293.976 27.7609 293.976 26.083C293.976 22.6663 292.558 20.9579 289.721 20.9579C288.348 20.9579 287.311 21.3698 286.609 22.1934C285.908 22.9866 285.511 23.9171 285.419 24.9848C285.358 26.022 285.328 27.9897 285.328 30.8878C285.328 35.3417 285.465 39.216 285.74 42.5107L285.877 43.8835C285.877 45.1038 285.099 46.0342 283.543 46.6749C281.987 47.346 280.645 47.6816 279.516 47.6816C278.388 47.6816 277.823 47.407 277.823 46.8579ZM324.773 27.1812L324.635 35.3722C324.635 41.0464 325.261 44.4631 326.512 45.6224C326.664 45.8054 326.74 46.0037 326.74 46.2173C326.74 46.8579 325.368 47.1782 322.622 47.1782C319.876 47.1782 318.412 46.3698 318.229 44.753C318.199 44.3564 318.183 43.5632 318.183 42.3735L318.412 32.1233C318.412 31.8182 318.244 31.6657 317.909 31.6657C315.865 31.6657 313.943 32.2453 312.143 33.4046C310.343 34.5638 309.443 36.0281 309.443 37.7975C309.443 38.7432 309.703 39.5364 310.221 40.177C310.74 40.8176 311.38 41.1379 312.143 41.1379C312.875 41.1379 313.485 40.9854 313.973 40.6803C314.462 40.4058 314.751 40.238 314.843 40.177C315.575 40.2685 315.941 41.0312 315.941 42.465C315.941 43.8988 315.27 45.0428 313.928 45.8969C312.616 46.7816 311.228 47.224 309.764 47.224C308.33 47.224 307.079 46.9647 306.011 46.4461C304.974 45.958 304.227 45.3936 303.769 44.753C303.281 44.1123 302.9 43.3802 302.625 42.5565C302.32 41.5803 302.167 40.7261 302.167 39.994C302.167 37.0043 303.098 34.6096 304.959 32.8097C306.85 31.0098 309.275 29.7285 312.235 28.9659C316.109 28.2032 318.138 27.5016 318.321 26.8609C318.443 26.4033 318.504 25.6102 318.504 24.4814C318.504 22.2239 317.344 21.0952 315.026 21.0952C314.05 21.0952 313.18 21.4003 312.418 22.0104C311.655 22.651 311.274 23.4289 311.274 24.3441L311.64 25.9C311.548 26.6321 310.786 27.0592 309.352 27.1812L308.62 27.227C307.338 27.227 306.332 26.9067 305.599 26.2661C304.837 25.6254 304.455 24.7712 304.455 23.7035C304.455 23.0324 304.684 22.285 305.142 21.4613C305.599 20.6071 306.164 19.936 306.835 19.4479C307.506 18.9292 308.559 18.4564 309.992 18.0293C311.426 17.6327 312.814 17.4344 314.156 17.4344C315.468 17.4344 316.49 17.4802 317.222 17.5717C317.955 17.6632 318.946 17.8615 320.197 18.1666C321.448 18.5022 322.485 19.1123 323.308 19.997C324.163 20.9122 324.62 21.8579 324.681 22.8341C324.742 23.8408 324.773 25.2898 324.773 27.1812ZM328.662 46.8579C329.455 42.2514 329.852 36.7145 329.852 30.2471C329.852 23.8103 329.654 19.6309 329.257 17.709C329.257 17.1599 329.898 16.8853 331.179 16.8853C333.132 16.8853 334.428 17.6327 335.069 19.1275C335.13 19.2496 335.236 19.3106 335.389 19.3106C335.572 19.3106 335.709 19.2648 335.801 19.1733C337.113 17.8005 339.157 17.1141 341.933 17.1141C344.709 17.1141 346.905 17.8158 348.522 19.2191C350.169 20.6529 350.993 22.712 350.993 25.3966C350.993 27.0135 350.84 29.3167 350.535 32.3063C350.261 35.296 350.124 37.5229 350.124 38.9872C350.124 42.4345 350.703 44.9207 351.862 46.4461C352.046 46.6596 352.137 46.8732 352.137 47.0867C352.137 47.6663 351.542 47.9561 350.352 47.9561C345.044 47.9561 342.39 45.6071 342.39 40.9091C342.39 39.1093 342.802 36.6077 343.626 33.4046C344.419 30.2014 344.815 27.7609 344.815 26.083C344.815 22.6663 343.412 20.9579 340.606 20.9579C339.233 20.9579 338.196 21.3698 337.494 22.1934C336.792 22.9866 336.396 23.9171 336.304 24.9848C336.213 26.022 336.167 27.9897 336.167 30.8878C336.167 35.3417 336.319 39.216 336.624 42.5107L336.762 43.8835C336.762 45.1038 335.984 46.0342 334.428 46.6749C332.872 47.346 331.515 47.6816 330.355 47.6816C329.227 47.6816 328.662 47.407 328.662 46.8579ZM367.055 17.6175C367.817 17.6175 368.504 17.7242 369.114 17.9378C369.755 18.1208 370.09 18.2123 370.121 18.2123L370.532 17.892L370.258 10.8908C370.166 9.70105 369.907 8.67908 369.48 7.8249C369.053 6.97072 368.672 6.42161 368.336 6.17756L367.741 5.85724C367.497 5.6742 367.375 5.47591 367.375 5.26236C367.375 4.62173 368.366 3.87432 370.349 3.02014C372.332 2.16596 373.888 1.73887 375.017 1.73887C376.115 1.73887 376.71 1.98292 376.801 2.47102C377.015 3.90482 377.122 6.66566 377.122 10.7535C377.122 14.8414 377.03 18.8377 376.847 22.7426C376.634 26.6779 376.527 31.1318 376.527 36.1044C376.527 41.0769 376.847 44.2038 377.488 45.4851C377.671 45.7902 377.762 46.08 377.762 46.3545C377.762 46.9952 376.847 47.3155 375.017 47.3155C371.509 47.3155 369.754 46.4766 369.754 44.7987C369.663 44.1276 369.617 43.0751 369.617 41.6413C369.617 40.2075 369.754 37.5382 370.029 33.6334C370.304 29.7285 370.441 26.7084 370.441 24.5729C370.441 22.468 369.388 21.4155 367.283 21.4155C365.179 21.4155 363.562 22.651 362.433 25.1221C361.335 27.5931 360.786 30.0794 360.786 32.5809C360.786 37.828 362.113 40.4515 364.767 40.4515C365.133 40.4515 365.499 40.3753 365.865 40.2227C366.231 40.0702 366.46 39.994 366.551 39.994C366.887 39.994 367.146 40.2075 367.329 40.6346C367.543 41.0617 367.65 41.4888 367.65 41.9159C367.65 43.3802 367.07 44.6004 365.911 45.5766C364.751 46.5833 363.333 47.0867 361.655 47.0867C359.092 47.0867 357.171 45.9732 355.889 43.7462C354.578 41.4888 353.922 38.6974 353.922 35.3722C353.922 31.1623 354.928 27.2423 356.942 23.612C357.948 21.8121 359.337 20.3631 361.106 19.2648C362.845 18.1666 364.828 17.6175 367.055 17.6175ZM386.731 30.1099L386.777 31.7115C386.777 31.986 386.945 32.1233 387.28 32.1233C388.653 32.0013 389.858 31.6504 390.895 31.0708C391.902 30.4912 392.665 29.8353 393.183 29.1032C394.221 27.5168 394.785 26.144 394.877 24.9848L394.922 24.2526C394.922 21.9341 394.007 20.7749 392.177 20.7749C390.804 20.7749 389.69 21.3698 388.836 22.5595C387.433 24.4509 386.731 26.9677 386.731 30.1099ZM400.688 38.6669C400.688 40.2838 400.352 41.7023 399.681 42.9226C399.041 44.1428 398.293 45.0275 397.439 45.5766C396.615 46.1563 395.654 46.6291 394.556 46.9952C393.122 47.4223 391.765 47.6358 390.484 47.6358C386.914 47.6358 384.276 46.2783 382.567 43.5632C380.859 40.8786 380.005 37.4619 380.005 33.313C380.005 29.1337 381.057 25.4271 383.162 22.1934C385.267 18.9293 388.44 17.2972 392.68 17.2972C396.524 17.2972 399.132 18.6547 400.505 21.3698C401.054 22.3765 401.329 23.3374 401.329 24.2526C401.329 25.1678 401.283 25.9 401.191 26.4491C401.1 26.9677 400.81 27.7609 400.322 28.8286C399.803 29.8963 399.117 30.8573 398.263 31.7115C397.409 32.5656 396.066 33.3893 394.236 34.1825C392.375 34.9451 390.209 35.4485 387.738 35.6925C387.402 35.6925 387.235 35.8451 387.235 36.1501C387.235 36.5467 387.372 37.1111 387.647 37.8432C387.921 38.6059 388.226 39.2313 388.562 39.7194C389.507 40.9397 390.895 41.5498 392.726 41.5498C394.587 41.5498 396.158 40.9397 397.439 39.7194C398.11 39.0788 398.659 38.3008 399.086 37.3857C399.27 37.0196 399.498 36.8365 399.773 36.8365C400.047 36.8365 400.261 37.0806 400.413 37.5687C400.597 38.0263 400.688 38.3924 400.688 38.6669ZM423.705 37.6144C423.705 39.4448 423.354 41.0464 422.653 42.4192C421.921 43.792 421.112 44.7987 420.227 45.4394C419.343 46.08 418.275 46.5986 417.024 46.9952C415.407 47.4833 413.928 47.7273 412.586 47.7273C409.809 47.7273 407.506 47.1935 405.676 46.1257C403.845 45.0275 402.93 43.2887 402.93 40.9091C402.93 39.4753 403.312 38.3161 404.074 37.4314C405.264 36.1196 406.698 35.4637 408.376 35.4637C408.894 35.4637 409.154 35.6925 409.154 36.1501C409.154 36.1806 409.062 36.5162 408.879 37.1568C408.665 37.767 408.559 38.5449 408.559 39.4906C408.559 40.4363 408.94 41.26 409.703 41.9616C410.435 42.6938 411.335 43.0598 412.403 43.0598C413.47 43.0598 414.324 42.8768 414.965 42.5107C415.606 42.1447 416.063 41.6871 416.338 41.1379C416.704 40.3753 416.887 39.6584 416.887 38.9872C416.887 37.7365 416.277 36.6688 415.057 35.7841C413.806 34.8689 412.433 34.152 410.938 33.6334C409.443 33.1453 408.071 32.2911 406.82 31.0708C405.6 29.8811 404.989 28.3862 404.989 26.5864C404.989 23.5357 405.95 21.2325 407.872 19.6767C409.825 18.1513 412.464 17.3887 415.789 17.3887C417.253 17.3887 418.778 17.587 420.365 17.9835C421.982 18.3801 422.79 19.0665 422.79 20.0427C422.79 20.9884 422.622 21.8731 422.287 22.6968C421.982 23.5205 421.6 23.9323 421.143 23.9323C420.868 23.9323 420.685 23.8255 420.594 23.612C420.533 23.4289 420.395 23.2154 420.182 22.9714C419.968 22.6968 419.45 22.3612 418.626 21.9646C417.802 21.5681 417.101 21.3698 416.521 21.3698C415.972 21.3698 415.59 21.3698 415.377 21.3698C415.194 21.4003 414.874 21.4765 414.416 21.5986C413.928 21.6901 413.501 21.8426 413.135 22.0562C412.128 22.6053 411.625 23.4137 411.625 24.4814C411.625 25.1831 411.777 25.6864 412.082 25.9915C412.387 26.3271 412.631 26.5711 412.814 26.7236C412.967 26.9067 413.257 27.105 413.684 27.3185C414.111 27.5626 414.416 27.7304 414.599 27.8219C414.751 27.9134 415.133 28.0964 415.743 28.371C416.353 28.6456 416.734 28.8286 416.887 28.9201C421.432 31.0556 423.705 33.9537 423.705 37.6144Z" fill="#281932"/>
<defs>
<linearGradient id="paint0_linear_138_9" x1="37" y1="0" x2="37" y2="74" gradientUnits="userSpaceOnUse">
<stop stop-color="#49247E"/>
<stop offset="1" stop-color="#532461"/>
</linearGradient>
</defs>
</svg>
